<svg version="1.1" xmlns="http://www.w3.org/2000/svg" xmlns:xlink="http://www.w3.org/1999/xlink" width="260" height="256" viewBox="0,0,260,256"><defs><clipPath id="clip-1"><rect x="0" y="0" width="260" height="256" fill="none"/></clipPath></defs><g fill="none" fill-rule="nonzero" stroke="none" stroke-width="1" stroke-linecap="butt" stroke-linejoin="miter" stroke-miterlimit="10" stroke-dasharray="" stroke-dashoffset="0" font-family="none" font-weight="none" font-size="none" text-anchor="none" style="mix-blend-mode: normal"><g clip-path="url(#clip-1)"><g fill="#000000"><path d="M118.1,32l-11.2,11.9l4,5.5c2.3,3 4.1,5.9 4.1,6.4c0,0.9 -60.5,45.2 -61.8,45.2c-0.7,0 -4.9,-5.2 -8.4,-10.4c-0.7,-1 -30.8,12.3 -30.8,13.6c0,0.7 14.7,27.7 15.6,28.7c0.1,0.2 3.4,-0.6 7.1,-1.7c3.7,-1.2 7.1,-1.8 7.4,-1.4c0.5,0.5 16.6,49.5 23.3,70.9c0.6,2 0,2.4 -6.4,4.4c-3.8,1.3 -7,2.8 -7,3.3c0,1.9 4,31.9 4.2,32.1c0.2,0.2 7.6,-1.1 16.5,-2.8l16.2,-3.1l0.3,-7.5l0.3,-7.6h38.5h38.5l0.3,7.6l0.3,7.5l16.2,3.1c8.9,1.7 16.3,3 16.5,2.8c0.2,-0.2 4.2,-30.2 4.2,-32.1c0,-0.5 -3.2,-2 -7,-3.3c-6.4,-2 -7,-2.4 -6.4,-4.4c4.8,-15.7 22.8,-70.4 23.3,-70.9c0.4,-0.4 3.7,0.2 7.4,1.4c3.6,1.2 6.8,2 7,1.7c1.1,-1.2 15.7,-28 15.7,-28.7c-0.1,-0.7 -26.8,-13.4 -29.3,-13.9c-0.7,-0.2 -3,2.2 -5.1,5.2c-2.2,3 -4.3,5.5 -4.8,5.5c-1.3,0 -61.8,-44.3 -61.8,-45.2c0,-0.5 1.8,-3.4 4.1,-6.4l4,-5.5l-11.2,-11.9c-6.1,-6.6 -11.5,-12 -11.9,-12c-0.4,0 -5.8,5.4 -11.9,12zM138.4,35.4c4.2,4.6 7.6,8.7 7.6,9.1c0,0.4 -1.9,3.4 -4.2,6.6c-2.4,3.5 -3.8,6.3 -3.2,6.8c1.9,1.8 67.6,49.2 68.8,49.7c0.7,0.3 3.2,-2.2 5.6,-5.6c2.4,-3.3 4.6,-6 4.9,-6c1.3,0 21.1,9.9 21.1,10.6c0,1.2 -10.1,19.3 -11.1,20c-0.5,0.3 -4.2,-0.4 -8,-1.6c-3.9,-1.2 -7.2,-2 -7.3,-1.8c-0.4,0.5 -26.6,81.6 -26.6,82.1c0,0.3 3,1.5 6.8,2.7c3.7,1.3 7,2.5 7.4,2.9c0.6,0.5 -1.9,23.1 -2.7,23.9c-0.1,0.2 -5.5,-0.7 -11.9,-1.9l-11.6,-2.3v-7.8v-7.8h-44h-44v7.8v7.8l-11.7,2.2c-6.4,1.2 -11.8,2.1 -11.9,1.9c-0.7,-0.7 -3.2,-23.3 -2.6,-23.8c0.4,-0.4 3.8,-1.7 7.5,-2.9c5.3,-1.7 6.8,-2.6 6.4,-3.9c-0.6,-2.4 -26.1,-80.5 -26.3,-80.9c-0.1,-0.2 -3.4,0.6 -7.3,1.8c-3.8,1.2 -7.5,1.9 -8,1.6c-1,-0.7 -11.1,-18.8 -11.1,-20c0,-0.7 19.8,-10.6 21.2,-10.6c0.4,0 2.6,2.7 4.9,6c2.3,3.3 4.5,6 4.8,6c1,0 69.6,-49.9 69.9,-50.8c0.1,-0.4 -1.7,-3.5 -4.1,-6.7l-4.4,-6l8,-8.8c4.3,-4.8 8.3,-8.7 8.7,-8.7c0.5,0 4.2,3.8 8.4,8.4z"/><path d="M88.9,85.2l-34.7,25.2l-1.6,5.2c-0.9,2.8 -1.6,5.9 -1.6,7c0,1 5.7,19.6 12.7,41.3l12.8,39.5l5.5,4.3l5.5,4.3h42.5h42.5l5.5,-4.3l5.5,-4.3l13.1,-40.4l13.1,-40.4l-2,-6.1l-2,-6.1l-34.3,-24.9l-34.4,-25l-6.8,-0.2l-6.7,-0.3zM132.3,63c3.9,0 6.7,1.8 37.8,24.4l33.5,24.4l1.7,5.9l1.7,5.8l-12.8,39.4l-12.8,39.3l-4.5,3.4l-4.4,3.3h-42.5h-42.5l-4.4,-3.3l-4.5,-3.4l-12.8,-39.3l-12.9,-39.4l1.8,-5.8l1.7,-5.9l31,-22.6c38.1,-27.7 37.7,-27.4 39.4,-26.7c0.7,0.3 3.2,0.5 5.5,0.5z"/><path d="M125.3,72.5c-1.2,0.9 -2.5,3 -2.8,4.8c-0.6,2.8 -3.5,5.3 -24.5,20.4c-21.4,15.6 -24.2,17.3 -27.8,17.3c-3.2,0 -4.5,0.6 -6.1,2.6c-3.4,4.3 -2.3,9.6 2.4,11.4c2.1,0.8 3.6,4.5 11.6,29.2c8.5,26.2 9.1,28.5 7.9,31.6c-1.5,4.2 0,8.4 3.6,10.1c3.6,1.6 4.9,1.4 8.2,-1.4l3,-2.5h29.5c25.8,0 29.6,0.2 30.8,1.6c3.5,4.3 10.4,3.7 12.9,-1.2c1.1,-1.9 1.1,-3.1 0.1,-6.2c-1.3,-3.7 -0.9,-5 7.8,-32.1c8.1,-24.7 9.5,-28.3 11.6,-29.1c4.6,-1.8 5.8,-7.1 2.5,-11.3c-1.6,-2 -3.1,-2.7 -6.5,-2.9c-3.9,-0.3 -7,-2.1 -27.9,-17.3c-20.6,-15 -23.5,-17.4 -24.1,-20.2c-0.7,-3.7 -3.8,-6.3 -7.5,-6.3c-1.4,0 -3.5,0.7 -4.7,1.5zM157.8,103.1c15.3,11.1 27.8,20.2 27.9,20.3c0.1,0.1 -4.5,14.7 -10.2,32.4c-5.8,17.7 -10.5,32.4 -10.5,32.7c0,0.3 -15.7,0.5 -34.9,0.5c-32.4,0 -34.9,-0.1 -35.4,-1.8c-0.2,-0.9 -5,-15.6 -10.5,-32.6c-9.3,-28.5 -10,-31.1 -8.4,-32.2c0.9,-0.7 13.4,-9.8 27.7,-20.3c14.3,-10.4 26.2,-19 26.3,-19c0.2,-0.1 12.8,9 28,20z"/><path d="M114.8,120.8c-17.2,12.5 -16.2,8.7 -8.4,31.6l5.1,15.1h18.5h18.5l5.7,-16.5c3.1,-9.1 5.7,-17.2 5.7,-18c0,-1.2 -28.6,-23.1 -30,-23c-0.2,0.1 -7,4.9 -15.1,10.8zM144,122.9c7.1,5.2 13,9.9 13,10.5c0,0.6 -2.2,7.8 -4.8,16.1l-4.8,15h-17.4h-17.4l-4.8,-15c-2.6,-8.3 -4.7,-15.6 -4.5,-16.3c0.2,-1.4 25.8,-20.3 26.9,-19.9c0.4,0.1 6.6,4.4 13.8,9.6z"/></g></g></g></svg>